<svg width="28" height="13" viewBox="0 0 28 13" fill="none" xmlns="http://www.w3.org/2000/svg">
<path d="M21.5 12.276L27.0313 6.81771C27.2292 6.61979 27.2292 6.3125 27.0313 6.11979L21.5 0.656251C21.3021 0.463541 20.9948 0.463541 20.7969 0.656251C20.599 0.854167 20.599 1.15625 20.7969 1.35417L25.4844 5.98438H0.755229C0.484395 5.98438 0.260437 6.20313 0.260437 6.47396C0.260437 6.73958 0.484395 6.96354 0.755229 6.96354H25.4844L20.7969 11.5833C20.6979 11.6771 20.6459 11.8021 20.6459 11.9219C20.6459 12.0469 20.6979 12.1667 20.7969 12.2656C20.9948 12.4635 21.3021 12.4635 21.5 12.276Z" fill="white"/>
</svg>
