<svg width="31" height="18" viewBox="0 0 31 18" fill="none" xmlns="http://www.w3.org/2000/svg">
<mask id="mask0_9_10" style="mask-type:luminance" maskUnits="userSpaceOnUse" x="0" y="0" width="31" height="18">
<path d="M0.807251 0.026001H30.8073V17.026H0.807251V0.026001Z" fill="white"/>
</mask>
<g mask="url(#mask0_9_10)">
<path d="M30.401 16.6145C30.151 16.8698 29.8124 17.0312 29.4322 17.0312C29.0572 17.0312 28.7187 16.8698 28.4687 16.6145L15.8072 3.44788L3.14575 16.6145C2.90096 16.8698 2.55721 17.0312 2.18221 17.0312C1.427 17.0312 0.817627 16.3958 0.817627 15.6093C0.817627 15.2187 0.968668 14.8645 1.21346 14.6093L14.8437 0.442668C15.0885 0.182252 15.4322 0.026001 15.8072 0.026001C16.1874 0.026001 16.526 0.182252 16.7708 0.442668L30.401 14.6093C30.6458 14.8645 30.802 15.2187 30.802 15.6093C30.802 16.0052 30.6458 16.3593 30.401 16.6145Z" fill="white"/>
</g>
</svg>
